<?xml version="1.0" encoding="UTF-8" standalone="no"?>
<!DOCTYPE svg PUBLIC "-//W3C//DTD SVG 1.1//EN"
 "http://www.w3.org/Graphics/SVG/1.1/DTD/svg11.dtd">
<!-- Generated by graphviz version 8.1.0 (20230707.0739)
 -->
<!-- Pages: 1 -->
<svg width="498pt" height="332pt"
 viewBox="0.00 0.00 498.00 332.00" xmlns="http://www.w3.org/2000/svg" xmlns:xlink="http://www.w3.org/1999/xlink">
<g id="graph0" class="graph" transform="scale(1 1) rotate(0) translate(4 328)">
<polygon fill="white" stroke="none" points="-4,4 -4,-328 494,-328 494,4 -4,4"/>
<!-- n1 -->
<g id="node1" class="node">
<title>n1</title>
<ellipse fill="none" stroke="black" cx="247" cy="-306" rx="52.38" ry="18"/>
<text text-anchor="middle" x="247" y="-300.95" font-family="Helvetica,Arial,sans-serif" font-size="14.00">Ejemplo3</text>
</g>
<!-- n2 -->
<g id="node2" class="node">
<title>n2</title>
<ellipse fill="none" stroke="black" cx="27" cy="-234" rx="27" ry="18"/>
<text text-anchor="middle" x="27" y="-228.95" font-family="Helvetica,Arial,sans-serif" font-size="14.00">t=4</text>
</g>
<!-- n1&#45;&#45;n2 -->
<g id="edge1" class="edge">
<title>n1&#45;&#45;n2</title>
<path fill="none" stroke="black" d="M205.09,-294.98C167.39,-285.48 110.74,-270.01 63,-252 58.09,-250.15 52.92,-247.89 48.08,-245.64"/>
</g>
<!-- n3 -->
<g id="node3" class="node">
<title>n3</title>
<ellipse fill="none" stroke="black" cx="101" cy="-234" rx="28.83" ry="18"/>
<text text-anchor="middle" x="101" y="-228.95" font-family="Helvetica,Arial,sans-serif" font-size="14.00">A=5</text>
</g>
<!-- n1&#45;&#45;n3 -->
<g id="edge2" class="edge">
<title>n1&#45;&#45;n3</title>
<path fill="none" stroke="black" d="M217.45,-290.83C189.62,-277.49 148.55,-257.8 123.35,-245.71"/>
</g>
<!-- n4 -->
<g id="node4" class="node">
<title>n4</title>
<ellipse fill="none" stroke="black" cx="175" cy="-234" rx="27" ry="18"/>
<text text-anchor="middle" x="175" y="-228.95" font-family="Helvetica,Arial,sans-serif" font-size="14.00">28</text>
</g>
<!-- n1&#45;&#45;n4 -->
<g id="edge3" class="edge">
<title>n1&#45;&#45;n4</title>
<path fill="none" stroke="black" d="M230.3,-288.76C218,-276.81 201.44,-260.71 189.66,-249.25"/>
</g>
<!-- n5 -->
<g id="node5" class="node">
<title>n5</title>
<ellipse fill="none" stroke="black" cx="247" cy="-234" rx="27" ry="18"/>
<text text-anchor="middle" x="247" y="-228.95" font-family="Helvetica,Arial,sans-serif" font-size="14.00">85</text>
</g>
<!-- n1&#45;&#45;n5 -->
<g id="edge4" class="edge">
<title>n1&#45;&#45;n5</title>
<path fill="none" stroke="black" d="M247,-287.7C247,-276.85 247,-262.92 247,-252.1"/>
</g>
<!-- n6 -->
<g id="node6" class="node">
<title>n6</title>
<ellipse fill="none" stroke="black" cx="319" cy="-234" rx="27" ry="18"/>
<text text-anchor="middle" x="319" y="-228.95" font-family="Helvetica,Arial,sans-serif" font-size="14.00">0</text>
</g>
<!-- n1&#45;&#45;n6 -->
<g id="edge5" class="edge">
<title>n1&#45;&#45;n6</title>
<path fill="none" stroke="black" d="M263.7,-288.76C276,-276.81 292.56,-260.71 304.34,-249.25"/>
</g>
<!-- n7 -->
<g id="node7" class="node">
<title>n7</title>
<ellipse fill="none" stroke="black" cx="391" cy="-234" rx="27" ry="18"/>
<text text-anchor="middle" x="391" y="-228.95" font-family="Helvetica,Arial,sans-serif" font-size="14.00">0</text>
</g>
<!-- n1&#45;&#45;n7 -->
<g id="edge6" class="edge">
<title>n1&#45;&#45;n7</title>
<path fill="none" stroke="black" d="M276.49,-290.67C304.14,-277.23 344.81,-257.45 369.51,-245.45"/>
</g>
<!-- n8 -->
<g id="node8" class="node">
<title>n8</title>
<ellipse fill="none" stroke="black" cx="463" cy="-234" rx="27" ry="18"/>
<text text-anchor="middle" x="463" y="-228.95" font-family="Helvetica,Arial,sans-serif" font-size="14.00">0</text>
</g>
<!-- n1&#45;&#45;n8 -->
<g id="edge7" class="edge">
<title>n1&#45;&#45;n8</title>
<path fill="none" stroke="black" d="M288.71,-294.68C325.58,-285.1 380.57,-269.68 427,-252 431.91,-250.13 437.08,-247.87 441.92,-245.62"/>
</g>
<!-- n9 -->
<g id="node9" class="node">
<title>n9</title>
<ellipse fill="none" stroke="black" cx="175" cy="-162" rx="27" ry="18"/>
<text text-anchor="middle" x="175" y="-156.95" font-family="Helvetica,Arial,sans-serif" font-size="14.00">22</text>
</g>
<!-- n4&#45;&#45;n9 -->
<g id="edge8" class="edge">
<title>n4&#45;&#45;n9</title>
<path fill="none" stroke="black" d="M175,-215.7C175,-204.85 175,-190.92 175,-180.1"/>
</g>
<!-- n10 -->
<g id="node10" class="node">
<title>n10</title>
<ellipse fill="none" stroke="black" cx="247" cy="-162" rx="27" ry="18"/>
<text text-anchor="middle" x="247" y="-156.95" font-family="Helvetica,Arial,sans-serif" font-size="14.00">0</text>
</g>
<!-- n5&#45;&#45;n10 -->
<g id="edge9" class="edge">
<title>n5&#45;&#45;n10</title>
<path fill="none" stroke="black" d="M247,-215.7C247,-204.85 247,-190.92 247,-180.1"/>
</g>
<!-- n11 -->
<g id="node11" class="node">
<title>n11</title>
<ellipse fill="none" stroke="black" cx="319" cy="-162" rx="27" ry="18"/>
<text text-anchor="middle" x="319" y="-156.95" font-family="Helvetica,Arial,sans-serif" font-size="14.00">81</text>
</g>
<!-- n6&#45;&#45;n11 -->
<g id="edge10" class="edge">
<title>n6&#45;&#45;n11</title>
<path fill="none" stroke="black" d="M319,-215.7C319,-204.85 319,-190.92 319,-180.1"/>
</g>
<!-- n12 -->
<g id="node12" class="node">
<title>n12</title>
<ellipse fill="none" stroke="black" cx="391" cy="-162" rx="27" ry="18"/>
<text text-anchor="middle" x="391" y="-156.95" font-family="Helvetica,Arial,sans-serif" font-size="14.00">15</text>
</g>
<!-- n7&#45;&#45;n12 -->
<g id="edge11" class="edge">
<title>n7&#45;&#45;n12</title>
<path fill="none" stroke="black" d="M391,-215.7C391,-204.85 391,-190.92 391,-180.1"/>
</g>
<!-- n13 -->
<g id="node13" class="node">
<title>n13</title>
<ellipse fill="none" stroke="black" cx="463" cy="-162" rx="27" ry="18"/>
<text text-anchor="middle" x="463" y="-156.95" font-family="Helvetica,Arial,sans-serif" font-size="14.00">5</text>
</g>
<!-- n8&#45;&#45;n13 -->
<g id="edge12" class="edge">
<title>n8&#45;&#45;n13</title>
<path fill="none" stroke="black" d="M463,-215.7C463,-204.85 463,-190.92 463,-180.1"/>
</g>
<!-- n14 -->
<g id="node14" class="node">
<title>n14</title>
<ellipse fill="none" stroke="black" cx="175" cy="-90" rx="27" ry="18"/>
<text text-anchor="middle" x="175" y="-84.95" font-family="Helvetica,Arial,sans-serif" font-size="14.00">66</text>
</g>
<!-- n9&#45;&#45;n14 -->
<g id="edge13" class="edge">
<title>n9&#45;&#45;n14</title>
<path fill="none" stroke="black" d="M175,-143.7C175,-132.85 175,-118.92 175,-108.1"/>
</g>
<!-- n15 -->
<g id="node15" class="node">
<title>n15</title>
<ellipse fill="none" stroke="black" cx="247" cy="-90" rx="27" ry="18"/>
<text text-anchor="middle" x="247" y="-84.95" font-family="Helvetica,Arial,sans-serif" font-size="14.00">49</text>
</g>
<!-- n10&#45;&#45;n15 -->
<g id="edge14" class="edge">
<title>n10&#45;&#45;n15</title>
<path fill="none" stroke="black" d="M247,-143.7C247,-132.85 247,-118.92 247,-108.1"/>
</g>
<!-- n16 -->
<g id="node16" class="node">
<title>n16</title>
<ellipse fill="none" stroke="black" cx="319" cy="-90" rx="27" ry="18"/>
<text text-anchor="middle" x="319" y="-84.95" font-family="Helvetica,Arial,sans-serif" font-size="14.00">88</text>
</g>
<!-- n11&#45;&#45;n16 -->
<g id="edge15" class="edge">
<title>n11&#45;&#45;n16</title>
<path fill="none" stroke="black" d="M319,-143.7C319,-132.85 319,-118.92 319,-108.1"/>
</g>
<!-- n17 -->
<g id="node17" class="node">
<title>n17</title>
<ellipse fill="none" stroke="black" cx="391" cy="-90" rx="27" ry="18"/>
<text text-anchor="middle" x="391" y="-84.95" font-family="Helvetica,Arial,sans-serif" font-size="14.00">82</text>
</g>
<!-- n12&#45;&#45;n17 -->
<g id="edge16" class="edge">
<title>n12&#45;&#45;n17</title>
<path fill="none" stroke="black" d="M391,-143.7C391,-132.85 391,-118.92 391,-108.1"/>
</g>
<!-- n18 -->
<g id="node18" class="node">
<title>n18</title>
<ellipse fill="none" stroke="black" cx="463" cy="-90" rx="27" ry="18"/>
<text text-anchor="middle" x="463" y="-84.95" font-family="Helvetica,Arial,sans-serif" font-size="14.00">83</text>
</g>
<!-- n13&#45;&#45;n18 -->
<g id="edge17" class="edge">
<title>n13&#45;&#45;n18</title>
<path fill="none" stroke="black" d="M463,-143.7C463,-132.85 463,-118.92 463,-108.1"/>
</g>
<!-- n19 -->
<g id="node19" class="node">
<title>n19</title>
<ellipse fill="none" stroke="black" cx="175" cy="-18" rx="27" ry="18"/>
<text text-anchor="middle" x="175" y="-12.95" font-family="Helvetica,Arial,sans-serif" font-size="14.00">57</text>
</g>
<!-- n14&#45;&#45;n19 -->
<g id="edge18" class="edge">
<title>n14&#45;&#45;n19</title>
<path fill="none" stroke="black" d="M175,-71.7C175,-60.85 175,-46.92 175,-36.1"/>
</g>
<!-- n20 -->
<g id="node20" class="node">
<title>n20</title>
<ellipse fill="none" stroke="black" cx="247" cy="-18" rx="27" ry="18"/>
<text text-anchor="middle" x="247" y="-12.95" font-family="Helvetica,Arial,sans-serif" font-size="14.00">76</text>
</g>
<!-- n15&#45;&#45;n20 -->
<g id="edge19" class="edge">
<title>n15&#45;&#45;n20</title>
<path fill="none" stroke="black" d="M247,-71.7C247,-60.85 247,-46.92 247,-36.1"/>
</g>
<!-- n21 -->
<g id="node21" class="node">
<title>n21</title>
<ellipse fill="none" stroke="black" cx="319" cy="-18" rx="27" ry="18"/>
<text text-anchor="middle" x="319" y="-12.95" font-family="Helvetica,Arial,sans-serif" font-size="14.00">11</text>
</g>
<!-- n16&#45;&#45;n21 -->
<g id="edge20" class="edge">
<title>n16&#45;&#45;n21</title>
<path fill="none" stroke="black" d="M319,-71.7C319,-60.85 319,-46.92 319,-36.1"/>
</g>
<!-- n22 -->
<g id="node22" class="node">
<title>n22</title>
<ellipse fill="none" stroke="black" cx="391" cy="-18" rx="27" ry="18"/>
<text text-anchor="middle" x="391" y="-12.95" font-family="Helvetica,Arial,sans-serif" font-size="14.00">31</text>
</g>
<!-- n17&#45;&#45;n22 -->
<g id="edge21" class="edge">
<title>n17&#45;&#45;n22</title>
<path fill="none" stroke="black" d="M391,-71.7C391,-60.85 391,-46.92 391,-36.1"/>
</g>
<!-- n23 -->
<g id="node23" class="node">
<title>n23</title>
<ellipse fill="none" stroke="black" cx="463" cy="-18" rx="27" ry="18"/>
<text text-anchor="middle" x="463" y="-12.95" font-family="Helvetica,Arial,sans-serif" font-size="14.00">41</text>
</g>
<!-- n18&#45;&#45;n23 -->
<g id="edge22" class="edge">
<title>n18&#45;&#45;n23</title>
<path fill="none" stroke="black" d="M463,-71.7C463,-60.85 463,-46.92 463,-36.1"/>
</g>
</g>
</svg>
