<?xml version="1.0" encoding="UTF-8" standalone="no"?>
<!DOCTYPE svg PUBLIC "-//W3C//DTD SVG 1.1//EN"
 "http://www.w3.org/Graphics/SVG/1.1/DTD/svg11.dtd">
<!-- Generated by graphviz version 8.1.0 (20230707.0739)
 -->
<!-- Pages: 1 -->
<svg width="563pt" height="260pt"
 viewBox="0.00 0.00 562.64 260.00" xmlns="http://www.w3.org/2000/svg" xmlns:xlink="http://www.w3.org/1999/xlink">
<g id="graph0" class="graph" transform="scale(1 1) rotate(0) translate(4 256)">
<polygon fill="white" stroke="none" points="-4,4 -4,-256 558.64,-256 558.64,4 -4,4"/>
<!-- n1 -->
<g id="node1" class="node">
<title>n1</title>
<ellipse fill="none" stroke="black" cx="306.83" cy="-234" rx="52.38" ry="18"/>
<text text-anchor="middle" x="306.83" y="-228.95" font-family="Helvetica,Arial,sans-serif" font-size="14.00">Ejemplo3</text>
</g>
<!-- n2 -->
<g id="node2" class="node">
<title>n2</title>
<ellipse fill="none" stroke="black" cx="28.83" cy="-162" rx="28.83" ry="18"/>
<text text-anchor="middle" x="28.83" y="-156.95" font-family="Helvetica,Arial,sans-serif" font-size="14.00">A=5</text>
</g>
<!-- n1&#45;&#45;n2 -->
<g id="edge1" class="edge">
<title>n1&#45;&#45;n2</title>
<path fill="none" stroke="black" d="M260.07,-225.58C211.14,-217.14 132.47,-201.68 66.83,-180 61.62,-178.28 56.15,-176.08 51.04,-173.84"/>
</g>
<!-- n3 -->
<g id="node3" class="node">
<title>n3</title>
<ellipse fill="none" stroke="black" cx="132.83" cy="-162" rx="57.49" ry="18"/>
<text text-anchor="middle" x="132.83" y="-156.95" font-family="Helvetica,Arial,sans-serif" font-size="14.00">G=1 t = (1)</text>
</g>
<!-- n1&#45;&#45;n3 -->
<g id="edge2" class="edge">
<title>n1&#45;&#45;n3</title>
<path fill="none" stroke="black" d="M273.69,-219.67C243.13,-207.37 197.94,-189.19 167.04,-176.76"/>
</g>
<!-- n7 -->
<g id="node6" class="node">
<title>n7</title>
<ellipse fill="none" stroke="black" cx="234.83" cy="-162" rx="27" ry="18"/>
<text text-anchor="middle" x="234.83" y="-156.95" font-family="Helvetica,Arial,sans-serif" font-size="14.00">28</text>
</g>
<!-- n1&#45;&#45;n7 -->
<g id="edge5" class="edge">
<title>n1&#45;&#45;n7</title>
<path fill="none" stroke="black" d="M290.13,-216.76C277.84,-204.81 261.27,-188.71 249.49,-177.25"/>
</g>
<!-- n8 -->
<g id="node7" class="node">
<title>n8</title>
<ellipse fill="none" stroke="black" cx="306.83" cy="-162" rx="27" ry="18"/>
<text text-anchor="middle" x="306.83" y="-156.95" font-family="Helvetica,Arial,sans-serif" font-size="14.00">85</text>
</g>
<!-- n1&#45;&#45;n8 -->
<g id="edge6" class="edge">
<title>n1&#45;&#45;n8</title>
<path fill="none" stroke="black" d="M306.83,-215.7C306.83,-204.85 306.83,-190.92 306.83,-180.1"/>
</g>
<!-- n9 -->
<g id="node8" class="node">
<title>n9</title>
<ellipse fill="none" stroke="black" cx="378.83" cy="-162" rx="27" ry="18"/>
<text text-anchor="middle" x="378.83" y="-156.95" font-family="Helvetica,Arial,sans-serif" font-size="14.00">0</text>
</g>
<!-- n1&#45;&#45;n9 -->
<g id="edge7" class="edge">
<title>n1&#45;&#45;n9</title>
<path fill="none" stroke="black" d="M323.53,-216.76C335.83,-204.81 352.39,-188.71 364.17,-177.25"/>
</g>
<!-- n10 -->
<g id="node9" class="node">
<title>n10</title>
<ellipse fill="none" stroke="black" cx="451.83" cy="-162" rx="27" ry="18"/>
<text text-anchor="middle" x="451.83" y="-156.95" font-family="Helvetica,Arial,sans-serif" font-size="14.00">0</text>
</g>
<!-- n1&#45;&#45;n10 -->
<g id="edge8" class="edge">
<title>n1&#45;&#45;n10</title>
<path fill="none" stroke="black" d="M336.17,-218.83C364.15,-205.33 405.59,-185.32 430.53,-173.28"/>
</g>
<!-- n11 -->
<g id="node10" class="node">
<title>n11</title>
<ellipse fill="none" stroke="black" cx="524.83" cy="-162" rx="27" ry="18"/>
<text text-anchor="middle" x="524.83" y="-156.95" font-family="Helvetica,Arial,sans-serif" font-size="14.00">0</text>
</g>
<!-- n1&#45;&#45;n11 -->
<g id="edge9" class="edge">
<title>n1&#45;&#45;n11</title>
<path fill="none" stroke="black" d="M348.37,-222.68C385.42,-213.05 440.91,-197.54 487.83,-180 493,-178.07 498.45,-175.74 503.53,-173.43"/>
</g>
<!-- n4 -->
<g id="node4" class="node">
<title>n4</title>
<ellipse fill="none" stroke="black" cx="125.83" cy="-90" rx="57.49" ry="18"/>
<text text-anchor="middle" x="125.83" y="-84.95" font-family="Helvetica,Arial,sans-serif" font-size="14.00">G=2 t = (2)</text>
</g>
<!-- n3&#45;&#45;n4 -->
<g id="edge3" class="edge">
<title>n3&#45;&#45;n4</title>
<path fill="none" stroke="black" d="M131.1,-143.7C130.02,-132.85 128.62,-118.92 127.54,-108.1"/>
</g>
<!-- n5 -->
<g id="node5" class="node">
<title>n5</title>
<ellipse fill="none" stroke="black" cx="118.83" cy="-18" rx="68.24" ry="18"/>
<text text-anchor="middle" x="118.83" y="-12.95" font-family="Helvetica,Arial,sans-serif" font-size="14.00">G=3 t = (3, 4)</text>
</g>
<!-- n4&#45;&#45;n5 -->
<g id="edge4" class="edge">
<title>n4&#45;&#45;n5</title>
<path fill="none" stroke="black" d="M124.1,-71.7C123.02,-60.85 121.62,-46.92 120.54,-36.1"/>
</g>
<!-- n12 -->
<g id="node11" class="node">
<title>n12</title>
<ellipse fill="none" stroke="black" cx="233.83" cy="-90" rx="27" ry="18"/>
<text text-anchor="middle" x="233.83" y="-84.95" font-family="Helvetica,Arial,sans-serif" font-size="14.00">22</text>
</g>
<!-- n7&#45;&#45;n12 -->
<g id="edge10" class="edge">
<title>n7&#45;&#45;n12</title>
<path fill="none" stroke="black" d="M234.58,-143.7C234.43,-132.85 234.23,-118.92 234.08,-108.1"/>
</g>
<!-- n13 -->
<g id="node12" class="node">
<title>n13</title>
<ellipse fill="none" stroke="black" cx="306.83" cy="-90" rx="27" ry="18"/>
<text text-anchor="middle" x="306.83" y="-84.95" font-family="Helvetica,Arial,sans-serif" font-size="14.00">0</text>
</g>
<!-- n8&#45;&#45;n13 -->
<g id="edge11" class="edge">
<title>n8&#45;&#45;n13</title>
<path fill="none" stroke="black" d="M306.83,-143.7C306.83,-132.85 306.83,-118.92 306.83,-108.1"/>
</g>
<!-- n14 -->
<g id="node13" class="node">
<title>n14</title>
<ellipse fill="none" stroke="black" cx="378.83" cy="-90" rx="27" ry="18"/>
<text text-anchor="middle" x="378.83" y="-84.95" font-family="Helvetica,Arial,sans-serif" font-size="14.00">81</text>
</g>
<!-- n9&#45;&#45;n14 -->
<g id="edge12" class="edge">
<title>n9&#45;&#45;n14</title>
<path fill="none" stroke="black" d="M378.83,-143.7C378.83,-132.85 378.83,-118.92 378.83,-108.1"/>
</g>
<!-- n15 -->
<g id="node14" class="node">
<title>n15</title>
<ellipse fill="none" stroke="black" cx="451.83" cy="-90" rx="27" ry="18"/>
<text text-anchor="middle" x="451.83" y="-84.95" font-family="Helvetica,Arial,sans-serif" font-size="14.00">15</text>
</g>
<!-- n10&#45;&#45;n15 -->
<g id="edge13" class="edge">
<title>n10&#45;&#45;n15</title>
<path fill="none" stroke="black" d="M451.83,-143.7C451.83,-132.85 451.83,-118.92 451.83,-108.1"/>
</g>
<!-- n16 -->
<g id="node15" class="node">
<title>n16</title>
<ellipse fill="none" stroke="black" cx="525.83" cy="-90" rx="27" ry="18"/>
<text text-anchor="middle" x="525.83" y="-84.95" font-family="Helvetica,Arial,sans-serif" font-size="14.00">5</text>
</g>
<!-- n11&#45;&#45;n16 -->
<g id="edge14" class="edge">
<title>n11&#45;&#45;n16</title>
<path fill="none" stroke="black" d="M525.08,-143.7C525.23,-132.85 525.43,-118.92 525.59,-108.1"/>
</g>
<!-- n17 -->
<g id="node16" class="node">
<title>n17</title>
<ellipse fill="none" stroke="black" cx="232.83" cy="-18" rx="27.81" ry="18"/>
<text text-anchor="middle" x="232.83" y="-12.95" font-family="Helvetica,Arial,sans-serif" font-size="14.00">123</text>
</g>
<!-- n12&#45;&#45;n17 -->
<g id="edge15" class="edge">
<title>n12&#45;&#45;n17</title>
<path fill="none" stroke="black" d="M233.58,-71.7C233.43,-60.85 233.23,-46.92 233.08,-36.1"/>
</g>
<!-- n18 -->
<g id="node17" class="node">
<title>n18</title>
<ellipse fill="none" stroke="black" cx="306.83" cy="-18" rx="27.81" ry="18"/>
<text text-anchor="middle" x="306.83" y="-12.95" font-family="Helvetica,Arial,sans-serif" font-size="14.00">125</text>
</g>
<!-- n13&#45;&#45;n18 -->
<g id="edge16" class="edge">
<title>n13&#45;&#45;n18</title>
<path fill="none" stroke="black" d="M306.83,-71.7C306.83,-60.85 306.83,-46.92 306.83,-36.1"/>
</g>
<!-- n19 -->
<g id="node18" class="node">
<title>n19</title>
<ellipse fill="none" stroke="black" cx="379.83" cy="-18" rx="27" ry="18"/>
<text text-anchor="middle" x="379.83" y="-12.95" font-family="Helvetica,Arial,sans-serif" font-size="14.00">99</text>
</g>
<!-- n14&#45;&#45;n19 -->
<g id="edge17" class="edge">
<title>n14&#45;&#45;n19</title>
<path fill="none" stroke="black" d="M379.08,-71.7C379.23,-60.85 379.43,-46.92 379.59,-36.1"/>
</g>
<!-- n20 -->
<g id="node19" class="node">
<title>n20</title>
<ellipse fill="none" stroke="black" cx="452.83" cy="-18" rx="27.81" ry="18"/>
<text text-anchor="middle" x="452.83" y="-12.95" font-family="Helvetica,Arial,sans-serif" font-size="14.00">113</text>
</g>
<!-- n15&#45;&#45;n20 -->
<g id="edge18" class="edge">
<title>n15&#45;&#45;n20</title>
<path fill="none" stroke="black" d="M452.08,-71.7C452.23,-60.85 452.43,-46.92 452.59,-36.1"/>
</g>
<!-- n21 -->
<g id="node20" class="node">
<title>n21</title>
<ellipse fill="none" stroke="black" cx="526.83" cy="-18" rx="27.81" ry="18"/>
<text text-anchor="middle" x="526.83" y="-12.95" font-family="Helvetica,Arial,sans-serif" font-size="14.00">124</text>
</g>
<!-- n16&#45;&#45;n21 -->
<g id="edge19" class="edge">
<title>n16&#45;&#45;n21</title>
<path fill="none" stroke="black" d="M526.08,-71.7C526.23,-60.85 526.43,-46.92 526.59,-36.1"/>
</g>
</g>
</svg>
